<svg width="98" height="131" viewBox="0 0 98 131" fill="none" xmlns="http://www.w3.org/2000/svg">
<path d="M39.9956 40.8767V0H33.4425V38.3136L20.4783 48.2042V68.2796C22.5972 68.9334 24.1502 70.8863 24.1502 73.2118C24.1502 76.0713 21.8195 78.399 18.9537 78.399C16.0878 78.399 13.7549 76.0713 13.7549 73.2118C13.7549 70.8863 15.308 68.9356 17.4268 68.2796V46.7003L30.3909 36.8075V0H24.0367V23.105C25.8147 23.7327 27.0991 25.4109 27.0991 27.4029C27.0991 29.9312 25.0436 31.9799 22.512 31.9799C19.9803 31.9799 17.9248 29.929 17.9248 27.4029C17.9248 25.4109 19.207 23.7348 20.9873 23.105V0H13.0712V40.8592H10.0218V0.244105C4.29663 1.31424 0 5.80185 0 11.1831V89.4709C0 95.6455 5.66185 100.654 12.6452 100.654H27.0314V50.7673L39.9956 40.8767Z" fill="#36013F"/>
<path d="M18.9523 69.2429C18.4128 69.2429 17.8973 69.3519 17.4276 69.548C15.9903 70.1474 14.9746 71.5619 14.9746 73.2118C14.9746 75.4 16.7592 77.1807 18.9523 77.1807C21.1454 77.1807 22.93 75.4 22.93 73.2118C22.93 71.5619 21.9143 70.1474 20.477 69.548C20.0074 69.3519 19.4919 69.2429 18.9523 69.2429Z" fill="#36013F"/>
<path d="M87.1623 38.9936H97.9989V11.1831C97.9989 5.00633 92.3349 0 85.3537 0H78.5254V29.7699L87.1623 38.9936Z" fill="#36013F"/>
<path d="M69.7091 36.7225V0H66.9961V41.2733L75.633 50.497H97.9987V47.7901H80.0717L69.7091 36.7225Z" fill="#36013F"/>
<path d="M85.8363 42.0383L75.4737 30.9708V0H72.7607V35.5216L81.3955 44.7453H97.9988V42.0383H85.8363Z" fill="#36013F"/>
<path d="M63.9461 42.4721V0H58.6075V82.466H55.5582V0H50.5254V57.09H47.4739V0H43.0462V42.3805L30.082 52.2733V100.656H85.355C92.3362 100.656 98.0002 95.6455 98.0002 89.4731V53.5418H74.3087L63.9461 42.4742V42.4721Z" fill="#36013F"/>
<path d="M10.7808 112.084V129.692C10.7808 129.901 10.617 130.074 10.416 130.074H7.02592C6.82496 130.074 6.66113 129.904 6.66113 129.692V112.084C6.66113 111.875 6.82496 111.703 7.02592 111.703H10.416C10.617 111.703 10.7808 111.873 10.7808 112.084Z" fill="#36013F"/>
<path d="M26.8129 112.084V114.957C26.8129 115.166 26.6491 115.338 26.4482 115.338H22.8134C22.6124 115.338 22.4486 115.508 22.4486 115.719V129.694C22.4486 129.904 22.2848 130.076 22.0838 130.076H18.6303C18.4294 130.076 18.2656 129.906 18.2656 129.694V115.719C18.2656 115.51 18.1017 115.338 17.9008 115.338H14.2398C14.0388 115.338 13.875 115.168 13.875 114.957V112.084C13.875 111.875 14.0388 111.703 14.2398 111.703H26.4482C26.6491 111.703 26.8129 111.873 26.8129 112.084Z" fill="#36013F"/>
<path d="M43.6279 118.566L40.063 118.799C39.8643 118.812 39.6895 118.655 39.6764 118.446C39.5322 116.105 38.5668 114.933 36.78 114.933C34.624 114.933 33.5449 116.929 33.5449 120.922C33.5449 123.228 33.8376 124.79 34.4252 125.612C35.0106 126.434 35.8319 126.844 36.8848 126.844C38.51 126.844 39.5344 125.795 39.956 123.701C39.9931 123.513 40.1526 123.38 40.3361 123.391L43.6235 123.6C43.842 123.614 43.9949 123.823 43.9599 124.047C43.6541 126.039 42.8874 127.569 41.6598 128.639C40.347 129.784 38.7393 130.355 36.8367 130.355C34.5039 130.355 32.6078 129.516 31.1487 127.837C29.6895 126.159 28.96 123.84 28.96 120.88C28.96 118.108 29.6655 115.839 31.0788 114.072C32.4899 112.304 34.4187 111.421 36.863 111.421C40.9761 111.421 43.3439 113.66 43.9665 118.136C43.9971 118.354 43.8376 118.553 43.6279 118.566Z" fill="#36013F"/>
<path d="M50.9012 130.071H47.8999C47.699 130.071 47.5352 129.901 47.5352 129.69V116.859C47.5352 116.65 47.699 116.478 47.8999 116.478H50.6959C50.8969 116.478 51.0607 116.648 51.0607 116.859V117.238C51.0607 117.62 51.5303 117.757 51.7357 117.439C52.273 116.602 52.9873 116.184 53.8763 116.184C53.9812 116.184 54.0991 116.188 54.2324 116.197C54.4246 116.21 54.5753 116.375 54.5753 116.576V119.81C54.5753 120.013 54.4224 120.179 54.228 120.19C53.6098 120.222 53.1162 120.344 52.747 120.558C52.3123 120.809 51.9563 121.26 51.6811 121.909C51.4058 122.561 51.2682 123.437 51.2682 124.54V129.69C51.2682 129.899 51.1044 130.071 50.9034 130.071H50.9012Z" fill="#36013F"/>
<path d="M68.9475 130.071H65.9811C65.802 130.071 65.6513 129.939 65.6207 129.758C65.5814 129.522 65.553 129.263 65.5333 128.975C65.5093 128.644 65.1117 128.496 64.8998 128.746C64.4477 129.28 63.9955 129.657 63.5455 129.878C62.8968 130.196 62.1607 130.355 61.335 130.355C60.1139 130.355 59.1288 130.01 58.3752 129.317C57.6238 128.626 57.248 127.698 57.248 126.532C57.248 125.68 57.4665 124.895 57.9055 124.176C58.3446 123.459 59.048 122.894 60.02 122.487C60.9483 122.097 62.6063 121.802 64.9938 121.606C65.1838 121.591 65.3324 121.425 65.3324 121.227V120.798C65.3324 119.479 64.7011 118.819 63.4407 118.819C62.1803 118.819 61.4791 119.368 61.2432 120.464C61.2017 120.652 61.0379 120.78 60.8544 120.763L58.0388 120.486C57.8204 120.464 57.6674 120.244 57.7155 120.022C58.006 118.701 58.681 117.749 59.7426 117.164C60.9134 116.519 62.2393 116.195 63.7203 116.195C64.6071 116.195 65.4416 116.301 66.2258 116.517C67.0099 116.733 67.6194 117.055 68.0584 117.487C68.4975 117.919 68.7946 118.374 68.9496 118.854C69.1047 119.333 69.1812 120.17 69.1812 121.364V127.528C69.1812 128.417 69.2249 129.115 69.3122 129.625C69.3516 129.858 69.1746 130.071 68.9475 130.071ZM65.3345 123.984C65.3345 123.753 65.1379 123.577 64.9195 123.607C62.5102 123.927 61.3044 124.76 61.3044 126.103C61.3044 126.578 61.4464 126.99 61.7282 127.334C62.0121 127.681 62.4141 127.853 62.9383 127.853C63.6154 127.853 64.1834 127.559 64.6443 126.972C65.103 126.384 65.3324 125.66 65.3324 124.799V123.988L65.3345 123.984Z" fill="#36013F"/>
<path d="M77.696 119.983V129.692C77.696 129.902 77.5322 130.074 77.3312 130.074H74.3168C74.1158 130.074 73.952 129.904 73.952 129.692V119.983C73.952 119.773 73.7882 119.601 73.5872 119.601H72.8052C72.6043 119.601 72.4404 119.431 72.4404 119.22V116.859C72.4404 116.65 72.6043 116.478 72.8052 116.478H73.5938C73.7904 116.478 73.9542 116.315 73.9586 116.107C73.9869 114.896 74.0809 114 74.2425 113.416C74.4195 112.775 74.8738 112.204 75.6056 111.707C76.3373 111.21 77.3312 110.959 78.5894 110.959C79.0241 110.959 79.5112 110.994 80.0529 111.064C80.2342 111.088 80.3696 111.252 80.3696 111.441V113.795C80.3696 114.015 80.1905 114.187 79.9786 114.174C79.5986 114.148 79.2731 114.135 79.0001 114.135C78.4758 114.135 78.1263 114.279 77.9537 114.567C77.7812 114.854 77.696 115.321 77.696 115.966V116.097C77.696 116.306 77.8598 116.478 78.0608 116.478H79.6947C79.8956 116.478 80.0595 116.648 80.0595 116.859V119.22C80.0595 119.429 79.8956 119.601 79.6947 119.601H78.0608C77.8598 119.601 77.696 119.771 77.696 119.983Z" fill="#36013F"/>
<path d="M88.7224 119.603C88.5214 119.603 88.3576 119.773 88.3576 119.984V125.35C88.3576 126.067 88.4603 126.549 88.6656 126.791C88.8709 127.033 89.3559 127.155 90.1182 127.155C90.3672 127.155 90.6468 127.146 90.9526 127.129C91.1623 127.116 91.3393 127.29 91.3393 127.508V129.753C91.3393 129.94 91.2082 130.1 91.0313 130.128C90.0723 130.289 89.369 130.37 88.9255 130.37C87.3244 130.37 86.1886 130.049 85.5158 129.409C84.8452 128.768 84.5088 127.608 84.5088 125.93V119.987C84.5088 119.777 84.345 119.605 84.144 119.605H82.8072C82.6062 119.605 82.4424 119.435 82.4424 119.224V116.863C82.4424 116.654 82.6062 116.482 82.8072 116.482H84.3908C84.5809 116.482 84.7403 116.329 84.7556 116.131L85.0134 112.794C85.0287 112.607 85.1706 112.461 85.3498 112.446L87.9644 112.234C88.1763 112.217 88.3576 112.391 88.3576 112.613V116.101C88.3576 116.31 88.5214 116.482 88.7224 116.482H90.7954C90.9963 116.482 91.1601 116.652 91.1601 116.863V119.224C91.1601 119.433 90.9963 119.605 90.7954 119.605H88.7224V119.603Z" fill="#36013F"/>
</svg>
