<svg width="198" height="81" viewBox="0 0 198 81" fill="none" xmlns="http://www.w3.org/2000/svg">
<g clip-path="url(#clip0_98_110)">
<path d="M159.23 49.6213L123.389 13.9389C122.801 13.2893 121.951 12.8796 121.005 12.8796C119.228 12.8796 117.789 14.3125 117.789 16.079V49.4233H117.816C118.088 52.6559 120.807 55.1949 124.122 55.1949H157.081C158.857 55.1949 160.296 53.762 160.296 51.9945C160.296 51.0513 159.884 50.2066 159.23 49.6213ZM191.168 0.822266H181.123C177.623 0.822266 174.789 3.6442 174.789 7.1265V48.8917C174.789 52.372 177.623 55.1949 181.123 55.1949H191.168C194.666 55.1949 197.501 52.372 197.501 48.8917V7.1265C197.501 3.6442 194.666 0.822266 191.168 0.822266ZM159.587 0.822266H126.63C124.854 0.822266 123.414 2.2542 123.414 4.02169C123.414 4.96494 123.828 5.81064 124.478 6.3959L160.323 42.0783C160.91 42.7269 161.759 43.1386 162.707 43.1386C164.483 43.1386 165.922 41.7047 165.922 39.9382V6.59294H165.895C165.62 3.36132 162.905 0.822266 159.587 0.822266ZM102.481 0.822266H67.1797C63.6818 0.822266 60.8462 3.6442 60.8462 7.1265C60.8462 7.4006 60.8462 48.6156 60.8462 48.8917C60.8462 52.372 63.6818 55.1949 67.1797 55.1949H102.481C105.978 55.1949 108.817 52.372 108.817 48.8917V6.99286H108.81C108.736 3.57202 105.934 0.822266 102.481 0.822266ZM27.2838 0.822266C12.2163 0.822266 0 12.983 0 27.9832C0 42.9864 12.2163 55.1462 27.2838 55.1462C42.3523 55.1462 54.5686 42.9864 54.5686 27.9832C54.5686 12.983 42.3523 0.822266 27.2838 0.822266Z" fill="#00AEEF"/>
<path d="M9.49729 80.6547V67.3664H4.7168V64.9395H17.0467V67.3664H12.2672V80.6547H9.49729Z" fill="#00AEEF"/>
<path d="M30.1389 80.6547V73.775H21.9262V80.6547H19.1572V64.9395H21.9262V71.3481H30.1389V64.9395H32.9079V80.6547H30.1389Z" fill="#00AEEF"/>
<path d="M35.5396 80.6547V64.9395H46.3547V67.3664H38.3085V71.4184H46.1891V73.8462H38.3085V78.2279H46.3547V80.6547H35.5396Z" fill="#00AEEF"/>
<path d="M67.9206 72.8083C67.9206 69.5572 65.862 67.1303 62.6903 67.1303C59.4952 67.1303 57.4601 69.5572 57.4601 72.8083C57.4601 76.037 59.4952 78.4863 62.6903 78.4863C65.862 78.4863 67.9206 76.037 67.9206 72.8083ZM54.6206 72.8083C54.6206 68.1194 57.9569 64.6801 62.6903 64.6801C67.4003 64.6801 70.761 68.1194 70.761 72.8083C70.761 77.4982 67.4003 80.9376 62.6903 80.9376C57.9569 80.9376 54.6206 77.4982 54.6206 72.8083Z" fill="#00AEEF"/>
<path d="M86.6936 80.6547V68.5213L81.8661 80.6547H80.6825L75.8305 68.5213V80.6547H73.0615V64.9395H76.967L81.2743 75.7307L85.558 64.9395H89.4626V80.6547H86.6936Z" fill="#00AEEF"/>
<path d="M103.148 80.6547L94.9115 69.4168V80.6547H92.1426V64.9395H94.9831L103.054 75.8244V64.9395H105.823V80.6547H103.148Z" fill="#00AEEF"/>
<path d="M111.483 64.9395H108.714V80.6547H111.483V64.9395Z" fill="#00AEEF"/>
<path d="M119.65 72.8083C119.65 67.8609 123.342 64.6801 127.934 64.6801C131.01 64.6801 133.023 66.1413 134.277 67.9312L132.028 69.2275C131.176 68.0492 129.685 67.1303 127.934 67.1303C124.81 67.1303 122.491 69.487 122.491 72.8083C122.491 76.0839 124.81 78.4864 127.934 78.4864C130.609 78.4864 132.099 76.6964 132.549 74.6227H126.94V72.1958H135.555C135.555 77.5207 132.667 80.961 127.697 80.961C123.342 80.961 119.65 77.7333 119.65 72.8083Z" fill="#00AEEF"/>
<path d="M146.588 69.8401C146.588 68.3321 145.453 67.3664 143.89 67.3664H140.08V72.3616H143.89C145.453 72.3616 146.588 71.3715 146.588 69.8401ZM146.329 80.6547L142.849 74.7875H140.08V80.6547H137.312V64.9395H144.246C147.369 64.9395 149.429 66.9421 149.429 69.8645C149.429 72.6435 147.583 74.1749 145.665 74.4822L149.547 80.6547H146.329Z" fill="#00AEEF"/>
<path d="M164.343 72.8083C164.343 69.5572 162.284 67.1303 159.113 67.1303C155.918 67.1303 153.882 69.5572 153.882 72.8083C153.882 76.037 155.918 78.4863 159.113 78.4863C162.284 78.4863 164.343 76.037 164.343 72.8083ZM151.042 72.8083C151.042 68.1194 154.379 64.6801 159.113 64.6801C163.822 64.6801 167.183 68.1194 167.183 72.8083C167.183 77.4982 163.822 80.9376 159.113 80.9376C154.379 80.9376 151.042 77.4982 151.042 72.8083Z" fill="#00AEEF"/>
<path d="M169.293 74.4344V64.9395H172.11V74.3642C172.11 76.8613 173.507 78.4863 176.134 78.4863C178.76 78.4863 180.157 76.8613 180.157 74.3642V64.9395H182.974V74.4344C182.974 78.3215 180.725 80.9376 176.134 80.9376C171.567 80.9376 169.293 78.3215 169.293 74.4344Z" fill="#00AEEF"/>
<path d="M194.645 69.8645C194.645 68.3565 193.533 67.3664 191.972 67.3664H188.161V72.3382H191.972C193.533 72.3382 194.645 71.3481 194.645 69.8645ZM185.392 80.6547V64.9395H192.35C195.663 64.9395 197.486 67.1781 197.486 69.8645C197.486 72.5264 195.64 74.7641 192.35 74.7641H188.161V80.6547H185.392Z" fill="#00AEEF"/>
</g>
<defs>
<clipPath id="clip0_98_110">
<rect width="198" height="81" fill="white"/>
</clipPath>
</defs>
</svg>
