<svg width="219" height="83" viewBox="0 0 219 83" fill="none" xmlns="http://www.w3.org/2000/svg">
<g clip-path="url(#clip0_98_96)">
<path d="M130.072 71.2309V73.351C130.072 73.5377 129.919 73.6895 129.73 73.6895C129.707 73.6895 129.612 73.6758 129.612 73.6758V73.6733C129.288 73.6057 128.971 73.5605 128.655 73.5605C125.89 73.5605 125.499 75.8611 125.499 76.49L125.496 82.3732C125.496 82.5599 125.344 82.7113 125.155 82.7113H122.899C122.711 82.7113 122.558 82.5599 122.558 82.3732L122.562 71.4277C122.562 71.241 122.715 71.0897 122.903 71.0897H125.155C125.344 71.0897 125.496 71.241 125.496 71.4277L125.499 72.3711C125.499 72.4638 125.576 72.5398 125.67 72.5398C125.729 72.5398 125.782 72.5103 125.812 72.4638C126.508 71.4191 127.674 70.8011 129.021 70.8011C129.234 70.8011 129.438 70.8252 129.638 70.8642L129.798 70.8994C129.954 70.9302 130.072 71.0669 130.072 71.2309L130.072 71.2309ZM106.34 71.4303H106.341V82.2995H106.339L106.337 82.3722C106.337 82.5589 106.184 82.7105 105.996 82.7105H103.894C103.705 82.7105 103.552 82.5589 103.552 82.3722L103.55 81.4126C103.55 81.3194 103.474 81.2441 103.38 81.2441C103.32 81.2441 103.271 81.2778 103.242 81.3242C102.638 82.2683 101.588 83.0014 99.905 83.0014C96.7483 83.0014 95.6233 80.7983 95.6233 78.4259L95.625 71.4303C95.625 71.2435 95.7781 71.0926 95.9665 71.0926H98.2159C98.4042 71.0926 98.557 71.2435 98.557 71.4303H98.562L98.5596 76.9736C98.5596 78.2573 98.6572 80.3869 100.713 80.3869C102.647 80.3869 103.404 78.9828 103.404 77.4341V71.4303H103.405C103.405 71.2435 103.558 71.0926 103.747 71.0926H105.996C106.184 71.0926 106.337 71.2435 106.337 71.4303L106.34 71.4303ZM143.654 82.3733C143.654 82.56 143.501 82.7113 143.313 82.7113H140.315C140.208 82.7113 140.112 82.6617 140.049 82.5851L135.733 77.0977C135.703 77.0545 135.652 77.0267 135.594 77.0267C135.5 77.0267 135.424 77.102 135.424 77.1957L135.428 82.3728C135.428 82.5592 135.276 82.7109 135.087 82.7109H132.83C132.642 82.7109 132.489 82.5592 132.489 82.3728L132.491 64.7461C132.491 64.5594 132.644 64.4084 132.832 64.4084H135.085C135.274 64.4084 135.427 64.5594 135.427 64.7461L135.426 75.5028C135.426 75.5959 135.502 75.6718 135.596 75.6718C135.648 75.6718 135.695 75.6487 135.727 75.6122L139.863 71.1895C139.924 71.1281 140.01 71.0904 140.104 71.0904L142.931 71.0912C143.121 71.0912 143.273 71.2426 143.273 71.4293C143.273 71.522 143.235 71.607 143.172 71.6679L138.924 75.9918C138.863 76.0528 138.824 76.1373 138.824 76.2304C138.824 76.3243 138.863 76.4096 138.925 76.4705L143.621 82.256C143.628 82.2258 143.654 82.2965 143.654 82.374L143.654 82.3733ZM119.405 76.0302C119.405 74.3839 119.405 70.8012 114.388 70.8012C112.653 70.8012 110.94 71.2863 109.666 72.4121L109.642 72.4293C109.507 72.5587 109.504 72.7724 109.635 72.9061L110.712 73.9717C110.845 74.1037 111.062 74.1037 111.194 73.9717L111.212 73.9575C111.973 73.3628 112.982 72.9801 114.069 72.9801C115.613 72.9801 116.727 73.7079 116.761 75.0948L116.762 75.1344C116.762 75.3211 116.609 75.4732 116.42 75.4732H116.027C113.091 75.4732 108.638 75.7394 108.638 79.5159C108.638 81.8152 110.742 83.0014 112.919 83.0014C114.352 83.0014 115.621 82.5157 116.464 81.4315L116.469 81.4185C116.5 81.3871 116.543 81.3679 116.591 81.3679C116.685 81.3679 116.763 81.4433 116.763 81.5364V82.3722C116.763 82.5589 116.916 82.7105 117.105 82.7105H119.068C119.256 82.7105 119.409 82.5589 119.409 82.3722V80.8612H119.405L119.405 76.0302ZM88.6262 77.309C88.5538 77.3826 88.4545 77.4171 88.3659 77.4171C88.2717 77.4171 88.1866 77.3787 88.1247 77.3181L86.1536 75.4013C86.092 75.3407 86.0062 75.3025 85.9118 75.3025H82.9138C82.7254 75.3025 82.5726 75.4539 82.5726 75.6406C82.5726 75.7365 82.6128 75.8238 82.678 75.8854L85.8626 78.9428C85.9242 79.0037 85.9625 79.0882 85.9625 79.1812C85.9625 79.3149 85.8698 79.4238 85.7552 79.478C85.1075 79.7186 84.4051 79.8432 83.6573 79.8432C82.1132 79.8432 80.719 79.2702 79.5128 78.139C78.3615 77.049 77.7771 75.6218 77.7771 73.8986C77.7771 72.1295 78.3456 70.6493 79.4661 69.4997C80.5784 68.3447 82.0172 67.7599 83.7448 67.7599C85.4513 67.7599 86.8986 68.3455 88.0458 69.5012C89.1948 70.6592 89.7776 72.1166 89.7776 73.8343C89.7776 75.1741 89.3852 76.3375 88.6261 77.3093L88.6262 77.309ZM90.7571 79.9697C90.6951 79.9088 90.657 79.8238 90.657 79.7308C90.657 79.6483 90.7 79.5685 90.75 79.5094C92.1451 77.8893 92.8547 76.04 92.8547 74.002C92.8547 71.1783 91.7944 68.8557 89.7035 67.0987C87.9655 65.6386 85.9718 64.8984 83.7772 64.8984C81.359 64.8984 79.2329 65.744 77.4573 67.4108C75.6281 69.1305 74.7002 71.308 74.7002 73.8828C74.7002 76.5118 75.6817 78.7022 77.6176 80.3932C79.3926 81.9276 81.4538 82.7044 83.7448 82.7044C85.3203 82.7044 86.7845 82.3317 88.1044 81.603C88.1953 81.548 88.2549 81.4977 88.3526 81.4977C88.4466 81.4977 88.5321 81.5357 88.5937 81.5963L89.5948 82.5986C89.6563 82.6599 89.7424 82.6985 89.8362 82.6985H92.7555C92.9439 82.6985 93.0969 82.5464 93.0969 82.3597C93.0969 82.2634 93.0565 82.1769 92.9909 82.1148L90.7571 79.9697ZM116.589 77.8433L116.589 77.8888V78.1597C116.589 79.7814 115.636 80.8226 113.629 80.8226C112.675 80.8226 111.574 80.3631 111.574 79.2979C111.574 77.6271 114.364 77.5067 115.978 77.5067H116.195L116.247 77.5047C116.436 77.5047 116.589 77.6566 116.589 77.8433Z" fill="black"/>
<path d="M90.1859 32.9457C90.1859 45.1461 100.184 55.0358 112.517 55.0358C124.851 55.0358 134.848 45.1461 134.848 32.9457C134.848 20.7453 124.85 10.8557 112.517 10.8557C100.185 10.8557 90.1859 20.7453 90.1859 32.9457ZM79.9111 30.2335C79.9111 13.8895 93.3066 0.638977 109.829 0.638977C126.353 0.638977 139.749 13.8884 139.749 30.2335C139.749 46.5787 126.354 59.8281 109.829 59.8281C93.3066 59.8281 79.9111 46.5787 79.9111 30.2335ZM101.413 35.8211C101.413 27.7766 108.005 21.2553 116.138 21.2553C124.27 21.2553 130.863 27.7763 130.863 35.8211C130.863 38.9664 129.852 41.8762 128.138 44.257L128.128 44.2491C128.128 44.2491 127.268 45.8008 125.499 44.4016L120.895 40.4892C120.786 40.4003 120.647 40.3472 120.496 40.3427L120.494 40.3422H120.489C120.484 40.3422 120.48 40.3407 120.476 40.3407V40.3422L110.935 40.3438C110.58 40.3438 110.29 40.6291 110.29 40.9814C110.29 41.1951 110.398 41.381 110.562 41.497L112.038 42.7831L118.126 48.1337C118.762 48.8201 119.613 50.1383 117.053 50.3561C117.001 50.3584 116.951 50.3648 116.9 50.3671C116.899 50.3671 116.897 50.3679 116.894 50.3679C116.643 50.3808 116.391 50.3864 116.138 50.3864C108.005 50.3864 101.413 43.8647 101.413 35.8217" fill="#65BF29"/>
</g>
<defs>
<clipPath id="clip0_98_96">
<rect width="68.9538" height="82.3615" fill="white" transform="translate(74.7002 0.638489)"/>
</clipPath>
</defs>
</svg>
