<svg width="168" height="235" viewBox="0 0 168 235" fill="none" xmlns="http://www.w3.org/2000/svg">
<mask id="mask0_98_812" style="mask-type:alpha" maskUnits="userSpaceOnUse" x="0" y="0" width="168" height="235">
<rect width="168" height="235" fill="#D9D9D9"/>
</mask>
<g mask="url(#mask0_98_812)">
<path d="M288.516 173.888L946.242 173.888V178.703L290.457 178.703L250.15 218.544H160.528L152.14 227.242C152.295 227.708 152.373 228.252 152.373 228.796C152.373 231.98 149.81 234.543 146.626 234.543C143.442 234.543 140.879 231.98 140.879 228.796C140.879 225.611 143.442 223.048 146.626 223.048C147.48 223.048 148.335 223.204 149.034 223.592L158.431 213.807H248.131L288.438 173.966L288.516 173.888Z" fill="#36013F" fill-opacity="0.1"/>
<path d="M277.721 145.54L946.242 145.54V150.355L279.741 150.355L236.948 194.623L134.434 194.623L109.737 167.518H77.1961C76.3418 169.538 74.3226 170.936 71.915 170.936C68.7308 170.936 66.168 168.373 66.168 165.188C66.168 162.004 68.7308 159.441 71.915 159.441C74.1672 159.441 76.1865 160.762 77.1184 162.703H111.834L136.53 189.808L234.929 189.808L277.721 145.54Z" fill="#36013F" fill-opacity="0.1"/>
<path d="M277.489 117.116L946.242 117.116V121.931L279.508 121.931L238.191 163.481H151.597L144.219 155.326C143.676 155.481 143.132 155.559 142.511 155.559C139.327 155.559 136.764 152.996 136.764 149.812C136.764 146.628 139.327 144.065 142.511 144.065C145.695 144.065 148.258 146.628 148.258 149.812C148.258 150.666 148.102 151.443 147.792 152.142L153.772 158.666H236.25L277.566 117.116H277.489Z" fill="#36013F" fill-opacity="0.1"/>
<path d="M180.022 60.4219L946.32 60.4219V65.237L181.963 65.237L151.442 95.7584L59.9551 95.7584L54.2857 89.5454C53.7421 89.7007 53.1984 89.7784 52.5771 89.7784C49.3929 89.7784 46.8301 87.2155 46.8301 84.0313C46.8301 80.8472 49.3929 78.2843 52.5771 78.2843C55.7613 78.2843 58.3242 80.8472 58.3242 84.0313C58.3242 84.8856 58.1688 85.6623 57.8582 86.3612L62.052 90.9433L149.5 90.9433L180.022 60.4219Z" fill="#36013F" fill-opacity="0.1"/>
<path d="M245.104 88.7681L946.321 88.7681V93.5832L247.045 93.5832L216.058 124.415L24.6968 124.415L7.3003 105.31C6.83432 105.466 6.29068 105.543 5.74704 105.543C2.56287 105.543 0 102.98 0 99.7962C0 96.612 2.56287 94.0491 5.74704 94.0491C8.93122 94.0491 11.4941 96.612 11.4941 99.7962C11.4941 100.65 11.3388 101.427 10.9504 102.204L26.7937 119.678L214.116 119.678L245.104 88.8457V88.7681Z" fill="#36013F" fill-opacity="0.1"/>
<path d="M112.533 0L170.236 0L202.233 31.9971L946.242 31.9971V36.8121L200.292 36.8121L168.295 4.81509L114.552 4.81509L85.5062 33.861C85.7392 34.4823 85.8945 35.1812 85.8945 35.8802C85.8945 39.0644 83.3316 41.6272 80.1474 41.6272C76.9633 41.6272 74.4004 39.0644 74.4004 35.8802C74.4004 32.696 76.9633 30.1331 80.1474 30.1331C80.8464 30.1331 81.5454 30.2885 82.1667 30.5215L112.533 0Z" fill="#36013F" fill-opacity="0.1"/>
</g>
</svg>
