<svg width="36" height="36" viewBox="0 0 36 36" fill="none" xmlns="http://www.w3.org/2000/svg">
<path d="M20.8301 20.7246C19.7988 19.8457 18.6562 19.1719 17.4023 18.7031C16.1484 18.2344 14.8477 18 13.5 18C12.4688 18 11.4727 18.1348 10.5117 18.4043C9.55078 18.6738 8.6543 19.0488 7.82227 19.5293C6.99023 20.0098 6.23438 20.5957 5.55469 21.2871C4.875 21.9785 4.28906 22.7402 3.79688 23.5723C3.30469 24.4043 2.92383 25.3008 2.6543 26.2617C2.38477 27.2227 2.25 28.2188 2.25 29.25H0C0 27.8438 0.205078 26.4902 0.615234 25.1895C1.02539 23.8887 1.61719 22.6875 2.39062 21.5859C3.16406 20.4844 4.07812 19.5059 5.13281 18.6504C6.1875 17.7949 7.38281 17.1211 8.71875 16.6289C7.39453 15.7617 6.36328 14.6719 5.625 13.3594C4.88672 12.0469 4.51172 10.5938 4.5 9C4.5 7.75781 4.73438 6.5918 5.20312 5.50195C5.67188 4.41211 6.31055 3.45703 7.11914 2.63672C7.92773 1.81641 8.88281 1.17188 9.98438 0.703125C11.0859 0.234375 12.2578 0 13.5 0C14.7422 0 15.9082 0.234375 16.998 0.703125C18.0879 1.17188 19.043 1.81055 19.8633 2.61914C20.6836 3.42773 21.3281 4.38281 21.7969 5.48438C22.2656 6.58594 22.5 7.75781 22.5 9C22.5 9.77344 22.4062 10.5293 22.2188 11.2676C22.0312 12.0059 21.75 12.7031 21.375 13.3594C21 14.0156 20.5605 14.6191 20.0566 15.1699C19.5527 15.7207 18.9609 16.207 18.2812 16.6289C19.043 16.9219 19.7695 17.2793 20.4609 17.7012C21.1523 18.123 21.8027 18.5977 22.4121 19.125L20.8301 20.7246ZM6.75 9C6.75 9.9375 6.92578 10.8105 7.27734 11.6191C7.62891 12.4277 8.10938 13.1426 8.71875 13.7637C9.32812 14.3848 10.043 14.8711 10.8633 15.2227C11.6836 15.5742 12.5625 15.75 13.5 15.75C14.4258 15.75 15.2988 15.5742 16.1191 15.2227C16.9395 14.8711 17.6543 14.3906 18.2637 13.7812C18.873 13.1719 19.3594 12.457 19.7227 11.6367C20.0859 10.8164 20.2617 9.9375 20.25 9C20.25 8.07422 20.0742 7.20117 19.7227 6.38086C19.3711 5.56055 18.8906 4.8457 18.2812 4.23633C17.6719 3.62695 16.9512 3.14062 16.1191 2.77734C15.2871 2.41406 14.4141 2.23828 13.5 2.25C12.5625 2.25 11.6895 2.42578 10.8809 2.77734C10.0723 3.12891 9.35742 3.60938 8.73633 4.21875C8.11523 4.82812 7.62891 5.54883 7.27734 6.38086C6.92578 7.21289 6.75 8.08594 6.75 9ZM30.375 13.5C31.1484 13.5 31.875 13.6465 32.5547 13.9395C33.2344 14.2324 33.8262 14.6367 34.3301 15.1523C34.834 15.668 35.2383 16.2656 35.543 16.9453C35.8477 17.625 36 18.3516 36 19.125C36 19.8984 35.8535 20.625 35.5605 21.3047C35.2676 21.9844 34.8633 22.582 34.3477 23.0977C33.832 23.6133 33.2344 24.0176 32.5547 24.3105C31.875 24.6035 31.1484 24.75 30.375 24.75C30.1055 24.75 29.8418 24.7324 29.584 24.6973L19.2656 35.0156C18.9492 35.332 18.5859 35.5723 18.1758 35.7363C17.7656 35.9004 17.332 35.9883 16.875 36C16.4062 36 15.9668 35.9121 15.5566 35.7363C15.1465 35.5605 14.7891 35.3203 14.4844 35.0156C14.1797 34.7109 13.9395 34.3535 13.7637 33.9434C13.5879 33.5332 13.5 33.0938 13.5 32.625C13.5 32.1797 13.582 31.752 13.7461 31.3418C13.9102 30.9316 14.1562 30.5625 14.4844 30.2344L24.8027 19.916C24.7676 19.6582 24.75 19.3945 24.75 19.125C24.75 18.3516 24.8965 17.625 25.1895 16.9453C25.4824 16.2656 25.8809 15.6738 26.3848 15.1699C26.8887 14.666 27.4863 14.2617 28.1777 13.957C28.8691 13.6523 29.6016 13.5 30.375 13.5ZM30.375 22.5C30.8438 22.5 31.2832 22.4121 31.6934 22.2363C32.1035 22.0605 32.4609 21.8203 32.7656 21.5156C33.0703 21.2109 33.3105 20.8535 33.4863 20.4434C33.6621 20.0332 33.75 19.5938 33.75 19.125C33.75 18.6445 33.6387 18.1641 33.416 17.6836L30.8496 20.25H29.25V18.6504L31.8164 16.084C31.3359 15.8613 30.8555 15.75 30.375 15.75C29.9062 15.75 29.4668 15.8379 29.0566 16.0137C28.6465 16.1895 28.2891 16.4297 27.9844 16.7344C27.6797 17.0391 27.4395 17.3965 27.2637 17.8066C27.0879 18.2168 27 18.6562 27 19.125C27 19.6055 27.1113 20.0859 27.334 20.5664L16.084 31.834C15.8613 32.0566 15.75 32.3203 15.75 32.625C15.75 32.9297 15.8613 33.1934 16.084 33.416C16.3066 33.6387 16.5703 33.75 16.875 33.75C17.1797 33.75 17.4434 33.6387 17.666 33.416L28.9336 22.166C29.4141 22.3887 29.8945 22.5 30.375 22.5Z" fill="white"/>
</svg>
